<svg width="361" height="247" viewBox="0 0 361 247" fill="none" xmlns="http://www.w3.org/2000/svg">
<g filter="url(#filter0_d_535_1066)">
<rect width="361" height="246.683" rx="32.0414" fill="white"/>
</g>
<path d="M280.044 75.5297V76.7343L273.059 92.3951H270.8L277.773 77.2904H268.645V75.5297H280.044ZM284.619 90.5997H284.839C286.075 90.5997 287.079 90.426 287.851 90.0785C288.623 89.731 289.218 89.2638 289.635 88.6769C290.052 88.09 290.337 87.4297 290.492 86.6961C290.646 85.9548 290.723 85.1941 290.723 84.4142V81.8311C290.723 81.0665 290.635 80.387 290.457 79.7924C290.287 79.1978 290.048 78.6997 289.739 78.2981C289.438 77.8966 289.094 77.5915 288.708 77.383C288.322 77.1745 287.913 77.0703 287.48 77.0703C286.986 77.0703 286.542 77.1707 286.148 77.3714C285.762 77.5645 285.434 77.8386 285.163 78.1939C284.901 78.5491 284.7 78.9661 284.561 79.4449C284.422 79.9237 284.353 80.4449 284.353 81.0086C284.353 81.5106 284.414 81.9971 284.538 82.4681C284.661 82.9392 284.851 83.3639 285.106 83.7423C285.36 84.1207 285.677 84.4219 286.055 84.6458C286.441 84.8621 286.893 84.9702 287.411 84.9702C287.889 84.9702 288.337 84.8775 288.754 84.6922C289.179 84.4991 289.554 84.2404 289.878 83.9161C290.21 83.584 290.472 83.2095 290.666 82.7925C290.866 82.3755 290.982 81.9392 291.013 81.4836H292.032C292.032 82.1245 291.905 82.7577 291.65 83.3832C291.403 84.001 291.056 84.5647 290.608 85.0744C290.16 85.5841 289.635 85.9934 289.032 86.3023C288.43 86.6034 287.774 86.754 287.063 86.754C286.229 86.754 285.507 86.5918 284.897 86.2675C284.287 85.9432 283.785 85.5107 283.391 84.9702C283.005 84.4296 282.715 83.8273 282.522 83.1631C282.337 82.4913 282.244 81.8117 282.244 81.1245C282.244 80.3213 282.356 79.5684 282.58 78.8657C282.804 78.163 283.136 77.5452 283.576 77.0123C284.017 76.4718 284.561 76.0509 285.21 75.7498C285.866 75.4486 286.623 75.298 287.48 75.298C288.445 75.298 289.268 75.4911 289.947 75.8772C290.627 76.2633 291.179 76.7807 291.604 77.4294C292.036 78.078 292.353 78.8078 292.554 79.6186C292.754 80.4295 292.855 81.2635 292.855 82.1206V82.8967C292.855 83.7693 292.797 84.6574 292.681 85.5609C292.573 86.4567 292.361 87.3139 292.044 88.1324C291.735 88.951 291.283 89.6846 290.689 90.3333C290.094 90.9742 289.318 91.4839 288.36 91.8623C287.411 92.233 286.237 92.4183 284.839 92.4183H284.619V90.5997ZM295.646 79.665V78.773C295.646 78.1321 295.785 77.549 296.063 77.0239C296.341 76.4988 296.739 76.078 297.257 75.7613C297.774 75.4447 298.388 75.2864 299.098 75.2864C299.824 75.2864 300.442 75.4447 300.952 75.7613C301.469 76.078 301.867 76.4988 302.145 77.0239C302.423 77.549 302.562 78.1321 302.562 78.773V79.665C302.562 80.2905 302.423 80.8658 302.145 81.3909C301.874 81.916 301.481 82.3369 300.963 82.6535C300.454 82.9701 299.84 83.1284 299.121 83.1284C298.403 83.1284 297.782 82.9701 297.257 82.6535C296.739 82.3369 296.341 81.916 296.063 81.3909C295.785 80.8658 295.646 80.2905 295.646 79.665ZM297.257 78.773V79.665C297.257 80.0202 297.322 80.3561 297.453 80.6727C297.592 80.9893 297.801 81.248 298.079 81.4488C298.357 81.6419 298.704 81.7384 299.121 81.7384C299.538 81.7384 299.882 81.6419 300.152 81.4488C300.423 81.248 300.623 80.9893 300.755 80.6727C300.886 80.3561 300.952 80.0202 300.952 79.665V78.773C300.952 78.4101 300.882 78.0703 300.743 77.7537C300.612 77.4294 300.407 77.1707 300.129 76.9776C299.859 76.7768 299.515 76.6764 299.098 76.6764C298.689 76.6764 298.345 76.7768 298.067 76.9776C297.797 77.1707 297.592 77.4294 297.453 77.7537C297.322 78.0703 297.257 78.4101 297.257 78.773ZM303.859 89.1634V88.2599C303.859 87.6266 303.998 87.0475 304.276 86.5223C304.554 85.9972 304.952 85.5764 305.469 85.2598C305.987 84.9431 306.6 84.7848 307.311 84.7848C308.037 84.7848 308.655 84.9431 309.164 85.2598C309.682 85.5764 310.079 85.9972 310.357 86.5223C310.635 87.0475 310.774 87.6266 310.774 88.2599V89.1634C310.774 89.7966 310.635 90.3758 310.357 90.9009C310.087 91.426 309.693 91.8469 309.176 92.1635C308.666 92.4801 308.052 92.6384 307.334 92.6384C306.616 92.6384 305.998 92.4801 305.481 92.1635C304.963 91.8469 304.562 91.426 304.276 90.9009C303.998 90.3758 303.859 89.7966 303.859 89.1634ZM305.469 88.2599V89.1634C305.469 89.5186 305.535 89.8584 305.666 90.1827C305.805 90.4993 306.014 90.758 306.292 90.9588C306.57 91.1519 306.917 91.2484 307.334 91.2484C307.751 91.2484 308.095 91.1519 308.365 90.9588C308.643 90.758 308.848 90.4993 308.979 90.1827C309.11 89.8661 309.176 89.5263 309.176 89.1634V88.2599C309.176 87.8969 309.106 87.5571 308.967 87.2405C308.836 86.9239 308.631 86.6691 308.353 86.476C308.083 86.2752 307.736 86.1748 307.311 86.1748C306.902 86.1748 306.558 86.2752 306.28 86.476C306.01 86.6691 305.805 86.9239 305.666 87.2405C305.535 87.5571 305.469 87.8969 305.469 88.2599ZM307.844 77.9274L299.608 91.1094L298.403 90.3449L306.639 77.1629L307.844 77.9274Z" fill="#0088F0"/>
<path d="M270.91 107.876V107.754C270.91 107.342 270.97 106.959 271.09 106.607C271.21 106.251 271.382 105.942 271.608 105.682C271.834 105.417 272.107 105.213 272.428 105.068C272.749 104.92 273.108 104.846 273.507 104.846C273.908 104.846 274.27 104.92 274.591 105.068C274.915 105.213 275.19 105.417 275.416 105.682C275.645 105.942 275.819 106.251 275.939 106.607C276.059 106.959 276.119 107.342 276.119 107.754V107.876C276.119 108.289 276.059 108.671 275.939 109.024C275.819 109.376 275.645 109.685 275.416 109.949C275.19 110.21 274.917 110.414 274.596 110.562C274.279 110.707 273.919 110.779 273.517 110.779C273.115 110.779 272.754 110.707 272.433 110.562C272.112 110.414 271.837 110.21 271.608 109.949C271.382 109.685 271.21 109.376 271.09 109.024C270.97 108.671 270.91 108.289 270.91 107.876ZM271.888 107.754V107.876C271.888 108.162 271.922 108.431 271.989 108.685C272.056 108.935 272.156 109.158 272.29 109.351C272.428 109.545 272.599 109.699 272.803 109.812C273.008 109.921 273.246 109.975 273.517 109.975C273.785 109.975 274.019 109.921 274.22 109.812C274.425 109.699 274.594 109.545 274.728 109.351C274.862 109.158 274.963 108.935 275.03 108.685C275.1 108.431 275.135 108.162 275.135 107.876V107.754C275.135 107.472 275.1 107.206 275.03 106.956C274.963 106.702 274.86 106.478 274.723 106.284C274.589 106.087 274.42 105.932 274.215 105.819C274.014 105.706 273.778 105.65 273.507 105.65C273.239 105.65 273.002 105.706 272.798 105.819C272.597 105.932 272.428 106.087 272.29 106.284C272.156 106.478 272.056 106.702 271.989 106.956C271.922 107.206 271.888 107.472 271.888 107.754ZM278.324 106.052V112.873H277.34V104.952H278.239L278.324 106.052ZM282.179 107.765V107.876C282.179 108.292 282.13 108.678 282.031 109.034C281.932 109.387 281.788 109.693 281.597 109.954C281.41 110.215 281.18 110.418 280.905 110.562C280.63 110.707 280.314 110.779 279.958 110.779C279.595 110.779 279.274 110.719 278.996 110.599C278.717 110.48 278.481 110.305 278.287 110.076C278.093 109.847 277.938 109.572 277.822 109.251C277.709 108.93 277.631 108.569 277.589 108.167V107.575C277.631 107.152 277.711 106.773 277.827 106.438C277.943 106.103 278.097 105.817 278.287 105.581C278.481 105.341 278.715 105.16 278.99 105.036C279.265 104.909 279.583 104.846 279.942 104.846C280.302 104.846 280.621 104.916 280.899 105.058C281.178 105.195 281.412 105.392 281.603 105.65C281.793 105.907 281.936 106.216 282.031 106.575C282.13 106.931 282.179 107.328 282.179 107.765ZM281.195 107.876V107.765C281.195 107.479 281.165 107.212 281.106 106.961C281.046 106.707 280.952 106.485 280.825 106.295C280.702 106.101 280.543 105.949 280.349 105.84C280.155 105.727 279.925 105.671 279.657 105.671C279.41 105.671 279.195 105.713 279.011 105.798C278.832 105.882 278.678 105.997 278.551 106.142C278.424 106.283 278.32 106.445 278.239 106.628C278.162 106.808 278.104 106.995 278.065 107.189V108.558C278.135 108.805 278.234 109.038 278.361 109.256C278.488 109.471 278.657 109.646 278.869 109.78C279.08 109.91 279.346 109.975 279.667 109.975C279.932 109.975 280.159 109.921 280.349 109.812C280.543 109.699 280.702 109.545 280.825 109.351C280.952 109.158 281.046 108.935 281.106 108.685C281.165 108.431 281.195 108.162 281.195 107.876ZM285.822 104.952V105.703H282.729V104.952H285.822ZM283.776 103.561H284.754V109.256C284.754 109.45 284.784 109.596 284.844 109.695C284.904 109.794 284.982 109.859 285.077 109.891C285.172 109.923 285.274 109.938 285.384 109.938C285.465 109.938 285.549 109.931 285.637 109.917C285.729 109.9 285.798 109.886 285.844 109.875L285.849 110.673C285.771 110.698 285.669 110.721 285.542 110.742C285.419 110.767 285.269 110.779 285.093 110.779C284.853 110.779 284.633 110.732 284.432 110.636C284.231 110.541 284.07 110.383 283.951 110.161C283.834 109.935 283.776 109.632 283.776 109.251V103.561ZM288.033 104.952V110.673H287.049V104.952H288.033ZM286.975 103.434C286.975 103.275 287.023 103.141 287.118 103.032C287.217 102.923 287.361 102.868 287.552 102.868C287.739 102.868 287.881 102.923 287.98 103.032C288.082 103.141 288.133 103.275 288.133 103.434C288.133 103.586 288.082 103.716 287.98 103.825C287.881 103.931 287.739 103.984 287.552 103.984C287.361 103.984 287.217 103.931 287.118 103.825C287.023 103.716 286.975 103.586 286.975 103.434ZM289.344 107.876V107.754C289.344 107.342 289.404 106.959 289.524 106.607C289.644 106.251 289.817 105.942 290.042 105.682C290.268 105.417 290.541 105.213 290.862 105.068C291.183 104.92 291.542 104.846 291.941 104.846C292.343 104.846 292.704 104.92 293.025 105.068C293.349 105.213 293.624 105.417 293.85 105.682C294.079 105.942 294.253 106.251 294.373 106.607C294.493 106.959 294.553 107.342 294.553 107.754V107.876C294.553 108.289 294.493 108.671 294.373 109.024C294.253 109.376 294.079 109.685 293.85 109.949C293.624 110.21 293.351 110.414 293.03 110.562C292.713 110.707 292.353 110.779 291.951 110.779C291.549 110.779 291.188 110.707 290.867 110.562C290.547 110.414 290.272 110.21 290.042 109.949C289.817 109.685 289.644 109.376 289.524 109.024C289.404 108.671 289.344 108.289 289.344 107.876ZM290.323 107.754V107.876C290.323 108.162 290.356 108.431 290.423 108.685C290.49 108.935 290.591 109.158 290.725 109.351C290.862 109.545 291.033 109.699 291.237 109.812C291.442 109.921 291.68 109.975 291.951 109.975C292.219 109.975 292.454 109.921 292.655 109.812C292.859 109.699 293.028 109.545 293.162 109.351C293.296 109.158 293.397 108.935 293.464 108.685C293.534 108.431 293.57 108.162 293.57 107.876V107.754C293.57 107.472 293.534 107.206 293.464 106.956C293.397 106.702 293.295 106.478 293.157 106.284C293.023 106.087 292.854 105.932 292.649 105.819C292.448 105.706 292.212 105.65 291.941 105.65C291.673 105.65 291.437 105.706 291.232 105.819C291.031 105.932 290.862 106.087 290.725 106.284C290.591 106.478 290.49 106.702 290.423 106.956C290.356 107.206 290.323 107.472 290.323 107.754ZM296.758 106.173V110.673H295.78V104.952H296.705L296.758 106.173ZM296.526 107.596L296.118 107.58C296.122 107.189 296.18 106.827 296.293 106.496C296.406 106.161 296.564 105.87 296.769 105.623C296.973 105.377 297.217 105.186 297.499 105.052C297.784 104.915 298.1 104.846 298.445 104.846C298.727 104.846 298.981 104.885 299.207 104.962C299.432 105.036 299.624 105.156 299.783 105.322C299.945 105.488 300.069 105.703 300.153 105.967C300.238 106.228 300.28 106.547 300.28 106.924V110.673H299.297V106.914C299.297 106.614 299.252 106.374 299.164 106.194C299.076 106.011 298.948 105.879 298.778 105.798C298.609 105.713 298.401 105.671 298.154 105.671C297.911 105.671 297.689 105.722 297.488 105.824C297.291 105.927 297.12 106.068 296.975 106.247C296.834 106.427 296.723 106.633 296.642 106.866C296.564 107.095 296.526 107.338 296.526 107.596ZM307.562 102.932V110.673H306.584V104.153L304.611 104.872V103.989L307.408 102.932H307.562Z" fill="#8794BA"/>
<path d="M279.777 155.218C279.777 156.245 279.538 157.118 279.059 157.836C278.588 158.546 277.947 159.087 277.136 159.457C276.333 159.828 275.426 160.013 274.414 160.013C273.402 160.013 272.491 159.828 271.68 159.457C270.869 159.087 270.229 158.546 269.757 157.836C269.286 157.118 269.051 156.245 269.051 155.218C269.051 154.546 269.178 153.932 269.433 153.376C269.696 152.812 270.062 152.322 270.534 151.905C271.012 151.488 271.576 151.168 272.225 150.944C272.881 150.712 273.603 150.596 274.391 150.596C275.426 150.596 276.348 150.797 277.159 151.198C277.97 151.592 278.607 152.137 279.071 152.832C279.542 153.527 279.777 154.322 279.777 155.218ZM277.623 155.172C277.623 154.546 277.487 153.994 277.217 153.515C276.947 153.029 276.569 152.65 276.082 152.38C275.596 152.11 275.032 151.975 274.391 151.975C273.734 151.975 273.167 152.11 272.688 152.38C272.217 152.65 271.85 153.029 271.588 153.515C271.325 153.994 271.194 154.546 271.194 155.172C271.194 155.82 271.321 156.376 271.576 156.84C271.839 157.295 272.209 157.647 272.688 157.894C273.175 158.133 273.75 158.253 274.414 158.253C275.078 158.253 275.65 158.133 276.128 157.894C276.607 157.647 276.974 157.295 277.229 156.84C277.491 156.376 277.623 155.82 277.623 155.172ZM279.383 147.306C279.383 148.125 279.167 148.862 278.735 149.519C278.302 150.175 277.711 150.693 276.962 151.071C276.213 151.449 275.364 151.639 274.414 151.639C273.449 151.639 272.588 151.449 271.831 151.071C271.082 150.693 270.495 150.175 270.07 149.519C269.645 148.862 269.433 148.125 269.433 147.306C269.433 146.326 269.645 145.492 270.07 144.804C270.503 144.117 271.093 143.592 271.842 143.229C272.592 142.866 273.445 142.685 274.402 142.685C275.368 142.685 276.225 142.866 276.974 143.229C277.723 143.592 278.31 144.117 278.735 144.804C279.167 145.492 279.383 146.326 279.383 147.306ZM277.24 147.341C277.24 146.777 277.121 146.279 276.881 145.847C276.642 145.414 276.31 145.075 275.885 144.828C275.46 144.573 274.966 144.445 274.402 144.445C273.839 144.445 273.344 144.565 272.92 144.804C272.503 145.036 272.175 145.368 271.935 145.801C271.703 146.233 271.588 146.747 271.588 147.341C271.588 147.92 271.703 148.426 271.935 148.859C272.175 149.291 272.507 149.627 272.931 149.866C273.356 150.106 273.85 150.225 274.414 150.225C274.978 150.225 275.468 150.106 275.885 149.866C276.31 149.627 276.642 149.291 276.881 148.859C277.121 148.426 277.24 147.92 277.24 147.341ZM293.388 142.916V144.121L286.403 159.782H284.144L291.117 144.677H281.99V142.916H293.388ZM295.646 147.052V146.16C295.646 145.519 295.785 144.936 296.063 144.411C296.341 143.885 296.739 143.465 297.257 143.148C297.774 142.831 298.388 142.673 299.098 142.673C299.824 142.673 300.442 142.831 300.952 143.148C301.469 143.465 301.867 143.885 302.145 144.411C302.423 144.936 302.562 145.519 302.562 146.16V147.052C302.562 147.677 302.423 148.252 302.145 148.777C301.874 149.303 301.481 149.723 300.963 150.04C300.454 150.357 299.84 150.515 299.121 150.515C298.403 150.515 297.782 150.357 297.257 150.04C296.739 149.723 296.341 149.303 296.063 148.777C295.785 148.252 295.646 147.677 295.646 147.052ZM297.257 146.16V147.052C297.257 147.407 297.322 147.743 297.453 148.059C297.592 148.376 297.801 148.635 298.079 148.835C298.357 149.028 298.704 149.125 299.121 149.125C299.538 149.125 299.882 149.028 300.152 148.835C300.423 148.635 300.623 148.376 300.755 148.059C300.886 147.743 300.952 147.407 300.952 147.052V146.16C300.952 145.797 300.882 145.457 300.743 145.14C300.612 144.816 300.407 144.557 300.129 144.364C299.859 144.163 299.515 144.063 299.098 144.063C298.689 144.063 298.345 144.163 298.067 144.364C297.797 144.557 297.592 144.816 297.453 145.14C297.322 145.457 297.257 145.797 297.257 146.16ZM303.859 156.55V155.646C303.859 155.013 303.998 154.434 304.276 153.909C304.554 153.384 304.952 152.963 305.469 152.646C305.987 152.33 306.6 152.171 307.311 152.171C308.037 152.171 308.655 152.33 309.164 152.646C309.682 152.963 310.079 153.384 310.357 153.909C310.635 154.434 310.774 155.013 310.774 155.646V156.55C310.774 157.183 310.635 157.762 310.357 158.287C310.087 158.813 309.693 159.233 309.176 159.55C308.666 159.867 308.052 160.025 307.334 160.025C306.616 160.025 305.998 159.867 305.481 159.55C304.963 159.233 304.562 158.813 304.276 158.287C303.998 157.762 303.859 157.183 303.859 156.55ZM305.469 155.646V156.55C305.469 156.905 305.535 157.245 305.666 157.569C305.805 157.886 306.014 158.145 306.292 158.345C306.57 158.538 306.917 158.635 307.334 158.635C307.751 158.635 308.095 158.538 308.365 158.345C308.643 158.145 308.848 157.886 308.979 157.569C309.11 157.253 309.176 156.913 309.176 156.55V155.646C309.176 155.284 309.106 154.944 308.967 154.627C308.836 154.31 308.631 154.056 308.353 153.863C308.083 153.662 307.736 153.561 307.311 153.561C306.902 153.561 306.558 153.662 306.28 153.863C306.01 154.056 305.805 154.31 305.666 154.627C305.535 154.944 305.469 155.284 305.469 155.646ZM307.844 145.314L299.608 158.496L298.403 157.731L306.639 144.55L307.844 145.314Z" fill="#EF2A82"/>
<path d="M270.91 175.263V175.141C270.91 174.729 270.97 174.346 271.09 173.994C271.21 173.637 271.382 173.329 271.608 173.068C271.834 172.804 272.107 172.599 272.428 172.455C272.749 172.307 273.108 172.233 273.507 172.233C273.908 172.233 274.27 172.307 274.591 172.455C274.915 172.599 275.19 172.804 275.416 173.068C275.645 173.329 275.819 173.637 275.939 173.994C276.059 174.346 276.119 174.729 276.119 175.141V175.263C276.119 175.675 276.059 176.058 275.939 176.41C275.819 176.763 275.645 177.071 275.416 177.336C275.19 177.596 274.917 177.801 274.596 177.949C274.279 178.094 273.919 178.166 273.517 178.166C273.115 178.166 272.754 178.094 272.433 177.949C272.112 177.801 271.837 177.596 271.608 177.336C271.382 177.071 271.21 176.763 271.09 176.41C270.97 176.058 270.91 175.675 270.91 175.263ZM271.888 175.141V175.263C271.888 175.548 271.922 175.818 271.989 176.072C272.056 176.322 272.156 176.544 272.29 176.738C272.428 176.932 272.599 177.085 272.803 177.198C273.008 177.307 273.246 177.362 273.517 177.362C273.785 177.362 274.019 177.307 274.22 177.198C274.425 177.085 274.594 176.932 274.728 176.738C274.862 176.544 274.963 176.322 275.03 176.072C275.1 175.818 275.135 175.548 275.135 175.263V175.141C275.135 174.859 275.1 174.593 275.03 174.343C274.963 174.089 274.86 173.865 274.723 173.671C274.589 173.474 274.42 173.318 274.215 173.206C274.014 173.093 273.778 173.036 273.507 173.036C273.239 173.036 273.002 173.093 272.798 173.206C272.597 173.318 272.428 173.474 272.29 173.671C272.156 173.865 272.056 174.089 271.989 174.343C271.922 174.593 271.888 174.859 271.888 175.141ZM278.324 173.438V180.26H277.34V172.338H278.239L278.324 173.438ZM282.179 175.152V175.263C282.179 175.679 282.13 176.065 282.031 176.421C281.932 176.773 281.788 177.08 281.597 177.341C281.41 177.602 281.18 177.804 280.905 177.949C280.63 178.094 280.314 178.166 279.958 178.166C279.595 178.166 279.274 178.106 278.996 177.986C278.717 177.866 278.481 177.692 278.287 177.463C278.093 177.233 277.938 176.958 277.822 176.638C277.709 176.317 277.631 175.955 277.589 175.554V174.961C277.631 174.538 277.711 174.159 277.827 173.824C277.943 173.489 278.097 173.204 278.287 172.968C278.481 172.728 278.715 172.546 278.99 172.423C279.265 172.296 279.583 172.233 279.942 172.233C280.302 172.233 280.621 172.303 280.899 172.444C281.178 172.582 281.412 172.779 281.603 173.036C281.793 173.294 281.936 173.602 282.031 173.962C282.13 174.318 282.179 174.714 282.179 175.152ZM281.195 175.263V175.152C281.195 174.866 281.165 174.598 281.106 174.348C281.046 174.094 280.952 173.872 280.825 173.682C280.702 173.488 280.543 173.336 280.349 173.227C280.155 173.114 279.925 173.058 279.657 173.058C279.41 173.058 279.195 173.1 279.011 173.184C278.832 173.269 278.678 173.384 278.551 173.528C278.424 173.669 278.32 173.831 278.239 174.015C278.162 174.194 278.104 174.381 278.065 174.575V175.945C278.135 176.192 278.234 176.424 278.361 176.643C278.488 176.858 278.657 177.032 278.869 177.166C279.08 177.297 279.346 177.362 279.667 177.362C279.932 177.362 280.159 177.307 280.349 177.198C280.543 177.085 280.702 176.932 280.825 176.738C280.952 176.544 281.046 176.322 281.106 176.072C281.165 175.818 281.195 175.548 281.195 175.263ZM285.822 172.338V173.089H282.729V172.338H285.822ZM283.776 170.948H284.754V176.643C284.754 176.837 284.784 176.983 284.844 177.082C284.904 177.18 284.982 177.246 285.077 177.277C285.172 177.309 285.274 177.325 285.384 177.325C285.465 177.325 285.549 177.318 285.637 177.304C285.729 177.286 285.798 177.272 285.844 177.262L285.849 178.06C285.771 178.085 285.669 178.108 285.542 178.129C285.419 178.153 285.269 178.166 285.093 178.166C284.853 178.166 284.633 178.118 284.432 178.023C284.231 177.928 284.07 177.769 283.951 177.547C283.834 177.321 283.776 177.018 283.776 176.638V170.948ZM288.033 172.338V178.06H287.049V172.338H288.033ZM286.975 170.821C286.975 170.662 287.023 170.528 287.118 170.419C287.217 170.309 287.361 170.255 287.552 170.255C287.739 170.255 287.881 170.309 287.98 170.419C288.082 170.528 288.133 170.662 288.133 170.821C288.133 170.972 288.082 171.103 287.98 171.212C287.881 171.318 287.739 171.371 287.552 171.371C287.361 171.371 287.217 171.318 287.118 171.212C287.023 171.103 286.975 170.972 286.975 170.821ZM289.344 175.263V175.141C289.344 174.729 289.404 174.346 289.524 173.994C289.644 173.637 289.817 173.329 290.042 173.068C290.268 172.804 290.541 172.599 290.862 172.455C291.183 172.307 291.542 172.233 291.941 172.233C292.343 172.233 292.704 172.307 293.025 172.455C293.349 172.599 293.624 172.804 293.85 173.068C294.079 173.329 294.253 173.637 294.373 173.994C294.493 174.346 294.553 174.729 294.553 175.141V175.263C294.553 175.675 294.493 176.058 294.373 176.41C294.253 176.763 294.079 177.071 293.85 177.336C293.624 177.596 293.351 177.801 293.03 177.949C292.713 178.094 292.353 178.166 291.951 178.166C291.549 178.166 291.188 178.094 290.867 177.949C290.547 177.801 290.272 177.596 290.042 177.336C289.817 177.071 289.644 176.763 289.524 176.41C289.404 176.058 289.344 175.675 289.344 175.263ZM290.323 175.141V175.263C290.323 175.548 290.356 175.818 290.423 176.072C290.49 176.322 290.591 176.544 290.725 176.738C290.862 176.932 291.033 177.085 291.237 177.198C291.442 177.307 291.68 177.362 291.951 177.362C292.219 177.362 292.454 177.307 292.655 177.198C292.859 177.085 293.028 176.932 293.162 176.738C293.296 176.544 293.397 176.322 293.464 176.072C293.534 175.818 293.57 175.548 293.57 175.263V175.141C293.57 174.859 293.534 174.593 293.464 174.343C293.397 174.089 293.295 173.865 293.157 173.671C293.023 173.474 292.854 173.318 292.649 173.206C292.448 173.093 292.212 173.036 291.941 173.036C291.673 173.036 291.437 173.093 291.232 173.206C291.031 173.318 290.862 173.474 290.725 173.671C290.591 173.865 290.49 174.089 290.423 174.343C290.356 174.593 290.323 174.859 290.323 175.141ZM296.758 173.56V178.06H295.78V172.338H296.705L296.758 173.56ZM296.526 174.982L296.118 174.967C296.122 174.575 296.18 174.214 296.293 173.882C296.406 173.548 296.564 173.257 296.769 173.01C296.973 172.763 297.217 172.573 297.499 172.439C297.784 172.301 298.1 172.233 298.445 172.233C298.727 172.233 298.981 172.271 299.207 172.349C299.432 172.423 299.624 172.543 299.783 172.709C299.945 172.874 300.069 173.089 300.153 173.354C300.238 173.615 300.28 173.934 300.28 174.311V178.06H299.297V174.3C299.297 174.001 299.252 173.761 299.164 173.581C299.076 173.398 298.948 173.266 298.778 173.184C298.609 173.1 298.401 173.058 298.154 173.058C297.911 173.058 297.689 173.109 297.488 173.211C297.291 173.313 297.12 173.454 296.975 173.634C296.834 173.814 296.723 174.02 296.642 174.253C296.564 174.482 296.526 174.725 296.526 174.982ZM309.391 177.256V178.06H304.352V177.357L306.874 174.549C307.185 174.203 307.424 173.911 307.594 173.671C307.766 173.428 307.886 173.211 307.953 173.021C308.024 172.827 308.059 172.629 308.059 172.428C308.059 172.174 308.006 171.945 307.9 171.741C307.798 171.533 307.646 171.367 307.445 171.244C307.245 171.12 307.001 171.059 306.716 171.059C306.374 171.059 306.088 171.126 305.859 171.26C305.633 171.39 305.464 171.573 305.351 171.81C305.239 172.046 305.182 172.317 305.182 172.624H304.204C304.204 172.19 304.299 171.794 304.489 171.434C304.68 171.074 304.962 170.789 305.336 170.577C305.709 170.362 306.169 170.255 306.716 170.255C307.202 170.255 307.618 170.341 307.964 170.514C308.309 170.683 308.574 170.923 308.757 171.233C308.944 171.54 309.037 171.899 309.037 172.312C309.037 172.538 308.998 172.767 308.921 172.999C308.847 173.229 308.743 173.458 308.609 173.687C308.478 173.916 308.325 174.142 308.149 174.364C307.976 174.586 307.791 174.804 307.594 175.019L305.531 177.256H309.391Z" fill="#8794BA"/>
<path d="M139.093 76.537C139.041 75.1604 140.116 73.9966 141.493 74.0066C153.491 74.0932 165.166 78.0572 174.756 85.3419C185.009 93.1305 192.244 104.233 195.229 116.759C198.213 129.284 196.763 142.456 191.124 154.032C185.485 165.607 176.007 174.87 164.305 180.241C152.603 185.611 139.4 186.758 126.947 183.486C114.494 180.214 103.561 172.725 96.0101 162.296C88.4594 151.866 84.7587 139.141 85.5384 126.289C86.2677 114.268 90.8742 102.832 98.6314 93.6785C99.5221 92.6275 101.105 92.5716 102.115 93.5085C103.125 94.4453 103.179 96.0198 102.293 97.0747C95.3184 105.379 91.1774 115.723 90.518 126.591C89.8081 138.291 93.1772 149.876 100.051 159.37C106.925 168.865 116.878 175.683 128.215 178.661C139.552 181.64 151.571 180.596 162.224 175.707C172.878 170.817 181.506 162.385 186.639 151.847C191.772 141.309 193.093 129.317 190.376 117.915C187.659 106.512 181.072 96.4049 171.738 89.3144C163.068 82.7279 152.525 79.1234 141.681 78.9973C140.303 78.9812 139.145 77.9136 139.093 76.537Z" fill="#EF2A82"/>
<path d="M138.107 52.9948C138.03 51.0081 139.578 49.3264 141.567 49.3382C157.14 49.4302 172.381 54.0498 185.413 62.6721C199.447 71.9576 210.21 85.4165 216.183 101.149C222.156 116.881 223.037 134.092 218.702 150.351C214.367 166.611 205.035 181.099 192.022 191.77C179.01 202.44 162.975 208.754 146.181 209.82C129.387 210.887 112.682 206.652 98.4245 197.713C84.167 188.774 73.077 175.583 66.72 160.002C60.8172 145.534 59.2722 129.684 62.2322 114.394C62.6101 112.442 64.5625 111.253 66.4956 111.718C68.4287 112.183 69.6096 114.126 69.2403 116.079C66.6278 129.901 68.0535 144.211 73.3865 157.282C79.1736 171.467 89.2695 183.475 102.249 191.613C115.228 199.75 130.436 203.606 145.725 202.635C161.013 201.664 175.611 195.916 187.457 186.202C199.303 176.488 207.799 163.299 211.745 148.497C215.692 133.694 214.89 118.026 209.452 103.704C204.014 89.3823 194.216 77.1299 181.44 68.6766C169.666 60.8868 155.912 56.6858 141.847 56.5406C139.859 56.5201 138.185 54.9815 138.107 52.9948Z" fill="#0088F0"/>
<path d="M133.222 128.5L132.7 128.366L132.957 125.81H135.591V126.413H133.511L133.356 127.809C133.45 127.755 133.568 127.705 133.712 127.658C133.858 127.611 134.024 127.587 134.212 127.587C134.45 127.587 134.663 127.628 134.851 127.711C135.039 127.791 135.198 127.906 135.33 128.056C135.464 128.207 135.566 128.388 135.637 128.599C135.707 128.811 135.742 129.047 135.742 129.308C135.742 129.554 135.708 129.781 135.64 129.988C135.574 130.195 135.475 130.376 135.341 130.531C135.207 130.684 135.037 130.802 134.833 130.887C134.631 130.972 134.392 131.014 134.117 131.014C133.91 131.014 133.714 130.986 133.529 130.929C133.345 130.871 133.181 130.782 133.035 130.665C132.892 130.545 132.774 130.397 132.682 130.221C132.593 130.042 132.537 129.833 132.513 129.593H133.134C133.162 129.786 133.218 129.948 133.303 130.08C133.388 130.211 133.498 130.311 133.634 130.379C133.773 130.445 133.934 130.478 134.117 130.478C134.272 130.478 134.41 130.451 134.53 130.397C134.65 130.343 134.751 130.265 134.833 130.164C134.915 130.063 134.977 129.941 135.02 129.798C135.064 129.654 135.087 129.493 135.087 129.315C135.087 129.153 135.064 129.002 135.02 128.863C134.975 128.725 134.908 128.604 134.819 128.5C134.732 128.397 134.625 128.317 134.498 128.261C134.371 128.202 134.225 128.172 134.061 128.172C133.842 128.172 133.677 128.202 133.564 128.261C133.453 128.319 133.339 128.399 133.222 128.5ZM137.283 128.5L136.761 128.366L137.019 125.81H139.652V126.413H137.572L137.417 127.809C137.511 127.755 137.63 127.705 137.773 127.658C137.919 127.611 138.086 127.587 138.274 127.587C138.511 127.587 138.724 127.628 138.912 127.711C139.1 127.791 139.26 127.906 139.391 128.056C139.525 128.207 139.627 128.388 139.698 128.599C139.768 128.811 139.804 129.047 139.804 129.308C139.804 129.554 139.77 129.781 139.701 129.988C139.636 130.195 139.536 130.376 139.402 130.531C139.268 130.684 139.099 130.802 138.894 130.887C138.692 130.972 138.453 131.014 138.179 131.014C137.972 131.014 137.775 130.986 137.59 130.929C137.406 130.871 137.242 130.782 137.096 130.665C136.953 130.545 136.835 130.397 136.744 130.221C136.654 130.042 136.598 129.833 136.574 129.593H137.195C137.223 129.786 137.28 129.948 137.364 130.08C137.449 130.211 137.559 130.311 137.696 130.379C137.834 130.445 137.995 130.478 138.179 130.478C138.334 130.478 138.471 130.451 138.591 130.397C138.711 130.343 138.812 130.265 138.894 130.164C138.976 130.063 139.039 129.941 139.081 129.798C139.126 129.654 139.148 129.493 139.148 129.315C139.148 129.153 139.126 129.002 139.081 128.863C139.036 128.725 138.969 128.604 138.88 128.5C138.793 128.397 138.686 128.317 138.559 128.261C138.432 128.202 138.287 128.172 138.122 128.172C137.904 128.172 137.738 128.202 137.625 128.261C137.515 128.319 137.401 128.399 137.283 128.5ZM141.947 128.493V129.029H140.227V128.493H141.947ZM145.018 125.803H145.074V126.357H145.018C144.672 126.357 144.383 126.413 144.151 126.526C143.918 126.637 143.733 126.786 143.597 126.974C143.461 127.16 143.362 127.369 143.301 127.601C143.242 127.834 143.213 128.07 143.213 128.31V129.064C143.213 129.292 143.24 129.494 143.294 129.671C143.348 129.845 143.422 129.992 143.516 130.111C143.61 130.231 143.716 130.322 143.833 130.383C143.953 130.444 144.078 130.475 144.207 130.475C144.357 130.475 144.491 130.446 144.609 130.39C144.726 130.331 144.825 130.25 144.905 130.147C144.987 130.041 145.049 129.916 145.092 129.773C145.134 129.63 145.155 129.472 145.155 129.301C145.155 129.148 145.136 129.001 145.099 128.86C145.061 128.717 145.004 128.59 144.926 128.479C144.849 128.366 144.751 128.278 144.634 128.215C144.518 128.149 144.381 128.116 144.221 128.116C144.04 128.116 143.871 128.161 143.713 128.25C143.558 128.337 143.43 128.452 143.329 128.596C143.23 128.737 143.174 128.89 143.16 129.057L142.814 129.054C142.847 128.791 142.908 128.566 142.998 128.38C143.089 128.192 143.202 128.04 143.336 127.922C143.472 127.802 143.624 127.715 143.791 127.661C143.96 127.605 144.139 127.577 144.327 127.577C144.583 127.577 144.804 127.625 144.99 127.721C145.175 127.818 145.328 127.947 145.448 128.109C145.568 128.269 145.656 128.45 145.712 128.652C145.771 128.852 145.8 129.057 145.8 129.269C145.8 129.511 145.766 129.738 145.698 129.949C145.63 130.161 145.528 130.346 145.391 130.506C145.257 130.666 145.092 130.791 144.894 130.88C144.697 130.969 144.468 131.014 144.207 131.014C143.93 131.014 143.688 130.958 143.481 130.845C143.274 130.73 143.102 130.577 142.966 130.386C142.83 130.196 142.727 129.985 142.659 129.752C142.591 129.519 142.557 129.283 142.557 129.043V128.737C142.557 128.375 142.593 128.02 142.666 127.672C142.739 127.324 142.865 127.009 143.044 126.727C143.225 126.445 143.475 126.221 143.794 126.054C144.114 125.887 144.522 125.803 145.018 125.803ZM150.045 129.216V129.752H146.336V129.368L148.635 125.81H149.167L148.596 126.84L147.077 129.216H150.045ZM149.329 125.81V130.943H148.677V125.81H149.329Z" fill="#8794BA"/>
<path d="M37.872 29.6341L35.6064 35.8717H34.6804L37.2892 29.0277H37.8861L37.872 29.6341ZM39.771 35.8717L37.5007 29.6341L37.4866 29.0277H38.0835L40.7017 35.8717H39.771ZM39.6535 33.3381V34.0808H35.8085V33.3381H39.6535ZM44.7818 30.7857H45.5715V35.7636C45.5715 36.2117 45.4806 36.594 45.2988 36.9105C45.1171 37.227 44.8633 37.4667 44.5374 37.6297C44.2146 37.7958 43.8417 37.8788 43.4186 37.8788C43.2431 37.8788 43.0363 37.8506 42.7982 37.7942C42.5631 37.7409 42.3312 37.6485 42.1025 37.5169C41.8769 37.3884 41.6873 37.2145 41.5337 36.9951L41.9897 36.4781C42.2028 36.735 42.4253 36.9137 42.6571 37.0139C42.8922 37.1142 43.1241 37.1643 43.3528 37.1643C43.6286 37.1643 43.8667 37.1126 44.0673 37.0092C44.2679 36.9058 44.423 36.7523 44.5327 36.5486C44.6455 36.348 44.7019 36.1005 44.7019 35.8059V31.9045L44.7818 30.7857ZM41.2799 33.3851V33.2864C41.2799 32.8978 41.3253 32.5453 41.4162 32.2288C41.5102 31.9092 41.6434 31.635 41.8158 31.4062C41.9912 31.1775 42.2028 31.002 42.4503 30.8798C42.6979 30.7544 42.9768 30.6917 43.287 30.6917C43.6067 30.6917 43.8856 30.7481 44.1237 30.8609C44.365 30.9706 44.5687 31.132 44.7348 31.3451C44.904 31.5551 45.0372 31.8089 45.1343 32.1066C45.2315 32.4043 45.2988 32.7412 45.3364 33.1172V33.5496C45.302 33.9226 45.2346 34.2579 45.1343 34.5556C45.0372 34.8533 44.904 35.1071 44.7348 35.317C44.5687 35.527 44.365 35.6884 44.1237 35.8012C43.8824 35.9109 43.6004 35.9657 43.2776 35.9657C42.9736 35.9657 42.6979 35.9015 42.4503 35.773C42.2059 35.6445 41.9959 35.4643 41.8205 35.2324C41.645 35.0005 41.5102 34.7279 41.4162 34.4145C41.3253 34.098 41.2799 33.7549 41.2799 33.3851ZM42.1495 33.2864V33.3851C42.1495 33.639 42.1746 33.8771 42.2247 34.0996C42.278 34.3221 42.3579 34.518 42.4644 34.6872C42.5741 34.8564 42.7136 34.9896 42.8828 35.0867C43.052 35.1807 43.2541 35.2277 43.4891 35.2277C43.7774 35.2277 44.0156 35.1666 44.2036 35.0444C44.3916 34.9222 44.5405 34.7608 44.6502 34.5603C44.763 34.3597 44.8507 34.1419 44.9134 33.9069V32.7741C44.8789 32.6017 44.8257 32.4356 44.7536 32.2758C44.6846 32.1129 44.5938 31.9687 44.4809 31.8434C44.3713 31.7149 44.235 31.613 44.072 31.5378C43.9091 31.4626 43.7179 31.425 43.4985 31.425C43.2604 31.425 43.0551 31.4752 42.8828 31.5754C42.7136 31.6726 42.5741 31.8073 42.4644 31.9797C42.3579 32.1489 42.278 32.3463 42.2247 32.5719C42.1746 32.7944 42.1495 33.0326 42.1495 33.2864ZM49.0029 35.9657C48.6487 35.9657 48.3275 35.9062 48.0392 35.7871C47.7541 35.6649 47.5081 35.4941 47.3013 35.2747C47.0976 35.0554 46.9409 34.7953 46.8312 34.4945C46.7215 34.1936 46.6667 33.8646 46.6667 33.5073V33.3099C46.6667 32.8963 46.7278 32.5281 46.85 32.2053C46.9722 31.8794 47.1383 31.6036 47.3483 31.378C47.5582 31.1524 47.7964 30.9816 48.0627 30.8656C48.3291 30.7497 48.6049 30.6917 48.89 30.6917C49.2535 30.6917 49.5669 30.7544 49.8301 30.8798C50.0965 31.0051 50.3143 31.1806 50.4835 31.4062C50.6527 31.6287 50.7781 31.8919 50.8596 32.1959C50.941 32.4967 50.9818 32.8258 50.9818 33.183V33.5731H47.1837V32.8634H50.1122V32.7976C50.0996 32.5719 50.0526 32.3526 49.9712 32.1395C49.8928 31.9264 49.7675 31.7509 49.5951 31.613C49.4228 31.4752 49.1877 31.4062 48.89 31.4062C48.6926 31.4062 48.5109 31.4485 48.3448 31.5331C48.1787 31.6146 48.0361 31.7368 47.917 31.8998C47.798 32.0627 47.7055 32.2617 47.6397 32.4967C47.5739 32.7318 47.541 33.0028 47.541 33.3099V33.5073C47.541 33.7486 47.5739 33.9758 47.6397 34.1889C47.7086 34.3989 47.8074 34.5838 47.9358 34.7436C48.0674 34.9034 48.2257 35.0287 48.4106 35.1196C48.5986 35.2105 48.8117 35.2559 49.0499 35.2559C49.357 35.2559 49.6171 35.1933 49.8301 35.0679C50.0432 34.9426 50.2297 34.7749 50.3895 34.565L50.916 34.9833C50.8063 35.1494 50.6668 35.3076 50.4976 35.4581C50.3284 35.6085 50.12 35.7307 49.8724 35.8247C49.628 35.9187 49.3382 35.9657 49.0029 35.9657ZM54.9584 34.5227C54.9584 34.3973 54.9302 34.2814 54.8738 34.1748C54.8205 34.0651 54.7093 33.9664 54.5401 33.8787C54.374 33.7878 54.1233 33.7095 53.788 33.6437C53.5059 33.5841 53.2506 33.5136 53.0218 33.4321C52.7962 33.3507 52.6034 33.2519 52.4436 33.136C52.2869 33.0201 52.1663 32.8837 52.0817 32.7271C51.9971 32.5704 51.9548 32.3871 51.9548 32.1771C51.9548 31.9765 51.9986 31.787 52.0864 31.6083C52.1773 31.4297 52.3042 31.2715 52.4671 31.1336C52.6332 30.9957 52.8322 30.8876 53.0641 30.8092C53.296 30.7309 53.5545 30.6917 53.8397 30.6917C54.2471 30.6917 54.5949 30.7638 54.8832 30.908C55.1715 31.0521 55.3924 31.2448 55.546 31.4861C55.6995 31.7243 55.7763 31.9891 55.7763 32.2805H54.9067C54.9067 32.1395 54.8644 32.0032 54.7798 31.8716C54.6983 31.7368 54.5777 31.6256 54.4179 31.5378C54.2612 31.4501 54.0684 31.4062 53.8397 31.4062C53.5984 31.4062 53.4025 31.4438 53.2521 31.519C53.1048 31.5911 52.9967 31.6835 52.9278 31.7964C52.862 31.9092 52.8291 32.0282 52.8291 32.1536C52.8291 32.2476 52.8447 32.3322 52.8761 32.4074C52.9106 32.4795 52.9701 32.5469 53.0547 32.6095C53.1393 32.6691 53.2584 32.7255 53.4119 32.7788C53.5655 32.832 53.7613 32.8853 53.9995 32.9386C54.4163 33.0326 54.7594 33.1454 55.0289 33.277C55.2984 33.4086 55.499 33.57 55.6306 33.7612C55.7622 33.9523 55.828 34.1842 55.828 34.4568C55.828 34.6793 55.781 34.883 55.687 35.0679C55.5961 35.2528 55.4629 35.4126 55.2874 35.5474C55.1151 35.679 54.9083 35.7824 54.667 35.8576C54.4288 35.9297 54.1609 35.9657 53.8632 35.9657C53.4151 35.9657 53.0359 35.8858 52.7257 35.726C52.4154 35.5662 52.1804 35.3593 52.0206 35.1055C51.8608 34.8517 51.7809 34.5838 51.7809 34.3017H52.6552C52.6677 34.5399 52.7366 34.7295 52.862 34.8705C52.9873 35.0084 53.1409 35.1071 53.3226 35.1666C53.5044 35.223 53.6846 35.2512 53.8632 35.2512C54.1013 35.2512 54.3003 35.2199 54.4602 35.1572C54.6231 35.0946 54.7469 35.0084 54.8315 34.8987C54.9161 34.789 54.9584 34.6637 54.9584 34.5227Z" fill="#8794BA"/>
<defs>
<filter id="filter0_d_535_1066" x="-37.3817" y="-18.1568" width="435.763" height="321.447" filterUnits="userSpaceOnUse" color-interpolation-filters="sRGB">
<feFlood flood-opacity="0" result="BackgroundImageFix"/>
<feColorMatrix in="SourceAlpha" type="matrix" values="0 0 0 0 0 0 0 0 0 0 0 0 0 0 0 0 0 0 127 0" result="hardAlpha"/>
<feMorphology radius="16.0207" operator="erode" in="SourceAlpha" result="effect1_dropShadow_535_1066"/>
<feOffset dy="19.2249"/>
<feGaussianBlur stdDeviation="26.7012"/>
<feColorMatrix type="matrix" values="0 0 0 0 0.0996452 0 0 0 0 0.164326 0 0 0 0 0.350284 0 0 0 0.2 0"/>
<feBlend mode="normal" in2="BackgroundImageFix" result="effect1_dropShadow_535_1066"/>
<feBlend mode="normal" in="SourceGraphic" in2="effect1_dropShadow_535_1066" result="shape"/>
</filter>
</defs>
</svg>
