<svg width="601" height="410" viewBox="0 0 601 410" fill="none" xmlns="http://www.w3.org/2000/svg">
<g filter="url(#filter0_d_535_1410)">
<rect x="0.870605" width="600" height="410" rx="30" fill="white"/>
</g>
<path d="M111.885 140.077L220.871 77.1547L329.856 140.077V265.923L220.871 328.845L111.885 265.923V140.077Z" stroke="#EEEEF7" stroke-width="2"/>
<path d="M149.99 162.077L220.871 121.155L291.751 162.077V243.923L220.871 284.845L149.99 243.923V162.077Z" stroke="#EEEEF7" stroke-width="2"/>
<path d="M163.284 170.015L221.234 122.292L302.95 154.394L308.802 252.403L221.216 304.468L156.947 237.278L163.284 170.015Z" stroke="#0088F0" stroke-width="4"/>
<path d="M137.392 155.392L220.232 109.637L266.11 177.966L296.313 247H221.145L168.66 232.338L137.392 155.392Z" stroke="#EF2A82" stroke-width="4"/>
<path d="M196.756 189.077L220.871 175.155L244.985 189.077V216.923L220.871 230.845L196.756 216.923V189.077Z" stroke="#EEEEF7" stroke-width="2"/>
<path d="M461.379 136.252H464.055C465.736 136.226 467.058 135.783 468.021 134.923C468.984 134.063 469.465 132.902 469.465 131.439C469.465 128.153 467.828 126.51 464.556 126.51C463.015 126.51 461.783 126.953 460.859 127.838C459.948 128.711 459.492 129.873 459.492 131.323H455.931C455.931 129.103 456.739 127.261 458.356 125.798C459.986 124.322 462.053 123.584 464.556 123.584C467.2 123.584 469.272 124.283 470.774 125.682C472.276 127.081 473.027 129.026 473.027 131.516C473.027 132.735 472.629 133.916 471.833 135.058C471.05 136.2 469.978 137.054 468.618 137.619C470.158 138.106 471.345 138.915 472.179 140.044C473.027 141.174 473.45 142.554 473.45 144.184C473.45 146.699 472.629 148.695 470.986 150.171C469.343 151.647 467.206 152.385 464.575 152.385C461.944 152.385 459.8 151.673 458.145 150.248C456.502 148.823 455.68 146.943 455.68 144.607H459.261C459.261 146.083 459.743 147.264 460.705 148.15C461.668 149.035 462.958 149.478 464.575 149.478C466.295 149.478 467.61 149.029 468.522 148.13C469.433 147.232 469.888 145.942 469.888 144.261C469.888 142.631 469.388 141.379 468.387 140.506C467.386 139.634 465.942 139.184 464.055 139.159H461.379V136.252ZM493.376 142.586H497.265V145.493H493.376V152H489.795V145.493H477.031V143.394L489.583 123.969H493.376V142.586ZM481.074 142.586H489.795V128.84L489.372 129.61L481.074 142.586ZM500.172 129.359C500.172 127.678 500.705 126.292 501.77 125.201C502.848 124.11 504.228 123.564 505.909 123.564C507.616 123.564 508.996 124.116 510.049 125.22C511.114 126.311 511.647 127.729 511.647 129.475V130.842C511.647 132.536 511.107 133.922 510.029 135C508.964 136.066 507.604 136.598 505.948 136.598C504.279 136.598 502.9 136.066 501.809 135C500.718 133.922 500.172 132.491 500.172 130.707V129.359ZM502.829 130.842C502.829 131.843 503.111 132.671 503.676 133.325C504.241 133.967 504.998 134.288 505.948 134.288C506.859 134.288 507.591 133.973 508.143 133.345C508.707 132.716 508.99 131.856 508.99 130.765V129.359C508.99 128.358 508.714 127.53 508.162 126.876C507.61 126.221 506.859 125.894 505.909 125.894C504.96 125.894 504.209 126.221 503.657 126.876C503.105 127.53 502.829 128.384 502.829 129.436V130.842ZM513.822 145.127C513.822 143.446 514.355 142.066 515.42 140.988C516.498 139.897 517.878 139.351 519.559 139.351C521.241 139.351 522.62 139.89 523.698 140.968C524.777 142.047 525.316 143.478 525.316 145.262V146.629C525.316 148.31 524.777 149.696 523.698 150.787C522.633 151.865 521.266 152.404 519.598 152.404C517.929 152.404 516.549 151.872 515.458 150.806C514.368 149.728 513.822 148.297 513.822 146.513V145.127ZM516.479 146.629C516.479 147.643 516.761 148.477 517.326 149.131C517.891 149.773 518.648 150.094 519.598 150.094C520.522 150.094 521.26 149.78 521.812 149.151C522.364 148.509 522.64 147.643 522.64 146.552V145.127C522.64 144.113 522.357 143.285 521.792 142.643C521.241 142.002 520.496 141.681 519.559 141.681C518.648 141.681 517.904 142.002 517.326 142.643C516.761 143.272 516.479 144.126 516.479 145.204V146.629ZM506.756 149.882L504.735 148.612L518.423 126.703L520.445 127.973L506.756 149.882Z" fill="#EF2A82"/>
<path d="M454.67 178.157C454.67 177.226 454.852 176.388 455.215 175.644C455.584 174.899 456.094 174.325 456.745 173.921C457.401 173.517 458.148 173.314 458.986 173.314C460.281 173.314 461.327 173.763 462.124 174.659C462.926 175.556 463.328 176.748 463.328 178.236V178.351C463.328 179.276 463.149 180.108 462.792 180.847C462.44 181.579 461.933 182.15 461.271 182.561C460.615 182.971 459.859 183.176 459.003 183.176C457.714 183.176 456.668 182.728 455.866 181.831C455.069 180.935 454.67 179.748 454.67 178.271V178.157ZM456.305 178.351C456.305 179.405 456.548 180.252 457.035 180.891C457.527 181.529 458.183 181.849 459.003 181.849C459.83 181.849 460.486 181.526 460.972 180.882C461.458 180.231 461.702 179.323 461.702 178.157C461.702 177.114 461.453 176.271 460.955 175.626C460.462 174.976 459.806 174.65 458.986 174.65C458.183 174.65 457.536 174.97 457.043 175.608C456.551 176.247 456.305 177.161 456.305 178.351ZM473.4 178.351C473.4 179.798 473.069 180.964 472.407 181.849C471.745 182.733 470.848 183.176 469.717 183.176C468.563 183.176 467.655 182.81 466.993 182.077V186.656H465.367V173.49H466.852L466.931 174.545C467.593 173.725 468.513 173.314 469.691 173.314C470.833 173.314 471.736 173.745 472.398 174.606C473.066 175.468 473.4 176.666 473.4 178.201V178.351ZM471.774 178.166C471.774 177.094 471.545 176.247 471.088 175.626C470.631 175.005 470.004 174.694 469.208 174.694C468.223 174.694 467.485 175.131 466.993 176.004V180.548C467.479 181.415 468.223 181.849 469.225 181.849C470.004 181.849 470.623 181.541 471.08 180.926C471.542 180.305 471.774 179.385 471.774 178.166ZM477.68 171.188V173.49H479.456V174.747H477.68V180.645C477.68 181.025 477.759 181.312 477.917 181.506C478.076 181.693 478.345 181.787 478.726 181.787C478.914 181.787 479.171 181.752 479.5 181.682V183C479.072 183.117 478.656 183.176 478.251 183.176C477.525 183.176 476.977 182.956 476.608 182.517C476.239 182.077 476.054 181.453 476.054 180.645V174.747H474.323V173.49H476.054V171.188H477.68ZM483.129 183H481.503V173.49H483.129V183ZM481.372 170.968C481.372 170.704 481.451 170.481 481.609 170.3C481.773 170.118 482.013 170.027 482.33 170.027C482.646 170.027 482.886 170.118 483.05 170.3C483.214 170.481 483.296 170.704 483.296 170.968C483.296 171.231 483.214 171.451 483.05 171.627C482.886 171.803 482.646 171.891 482.33 171.891C482.013 171.891 481.773 171.803 481.609 171.627C481.451 171.451 481.372 171.231 481.372 170.968ZM485.309 178.157C485.309 177.226 485.491 176.388 485.854 175.644C486.223 174.899 486.733 174.325 487.383 173.921C488.04 173.517 488.787 173.314 489.625 173.314C490.919 173.314 491.965 173.763 492.762 174.659C493.565 175.556 493.966 176.748 493.966 178.236V178.351C493.966 179.276 493.788 180.108 493.43 180.847C493.079 181.579 492.572 182.15 491.91 182.561C491.253 182.971 490.498 183.176 489.642 183.176C488.353 183.176 487.307 182.728 486.504 181.831C485.708 180.935 485.309 179.748 485.309 178.271V178.157ZM486.944 178.351C486.944 179.405 487.187 180.252 487.673 180.891C488.166 181.529 488.822 181.849 489.642 181.849C490.468 181.849 491.125 181.526 491.611 180.882C492.097 180.231 492.34 179.323 492.34 178.157C492.34 177.114 492.091 176.271 491.593 175.626C491.101 174.976 490.445 174.65 489.625 174.65C488.822 174.65 488.174 174.97 487.682 175.608C487.19 176.247 486.944 177.161 486.944 178.351ZM497.543 173.49L497.596 174.686C498.323 173.771 499.272 173.314 500.444 173.314C502.454 173.314 503.467 174.448 503.485 176.716V183H501.859V176.707C501.853 176.021 501.695 175.515 501.384 175.187C501.08 174.858 500.602 174.694 499.952 174.694C499.424 174.694 498.961 174.835 498.563 175.116C498.165 175.397 497.854 175.767 497.631 176.224V183H496.005V173.49H497.543ZM515.579 183H513.944V172.163L510.666 173.367V171.891L515.324 170.142H515.579V183Z" fill="#8794BA"/>
<path d="M474.567 264H456.2V261.439L465.903 250.658C467.341 249.028 468.329 247.706 468.868 246.692C469.42 245.665 469.696 244.607 469.696 243.516C469.696 242.052 469.253 240.852 468.368 239.915C467.482 238.979 466.301 238.51 464.825 238.51C463.054 238.51 461.674 239.017 460.686 240.031C459.71 241.032 459.223 242.431 459.223 244.228H455.661C455.661 241.648 456.489 239.562 458.145 237.971C459.813 236.379 462.04 235.584 464.825 235.584C467.431 235.584 469.491 236.27 471.005 237.644C472.52 239.004 473.277 240.82 473.277 243.092C473.277 245.852 471.518 249.137 468.002 252.949L460.493 261.093H474.567V264ZM491.99 251.679C491.246 252.564 490.354 253.277 489.314 253.816C488.287 254.355 487.158 254.624 485.926 254.624C484.308 254.624 482.897 254.226 481.69 253.431C480.496 252.635 479.572 251.518 478.918 250.081C478.263 248.63 477.936 247.032 477.936 245.287C477.936 243.413 478.289 241.725 478.995 240.223C479.714 238.722 480.727 237.573 482.037 236.777C483.346 235.982 484.873 235.584 486.619 235.584C489.391 235.584 491.573 236.623 493.164 238.703C494.769 240.769 495.571 243.593 495.571 247.174V248.213C495.571 253.668 494.493 257.653 492.337 260.169C490.18 262.672 486.927 263.955 482.576 264.019H481.883V261.016H482.633C485.573 260.965 487.832 260.201 489.41 258.725C490.989 257.236 491.849 254.887 491.99 251.679ZM486.503 251.679C487.697 251.679 488.794 251.313 489.795 250.581C490.809 249.85 491.547 248.945 492.009 247.867V246.442C492.009 244.106 491.502 242.206 490.488 240.743C489.474 239.28 488.191 238.549 486.638 238.549C485.072 238.549 483.814 239.152 482.864 240.358C481.915 241.552 481.44 243.131 481.44 245.094C481.44 247.007 481.895 248.585 482.807 249.83C483.731 251.062 484.963 251.679 486.503 251.679ZM500.172 241.359C500.172 239.678 500.705 238.292 501.77 237.201C502.848 236.11 504.228 235.564 505.909 235.564C507.616 235.564 508.996 236.116 510.049 237.22C511.114 238.311 511.647 239.729 511.647 241.475V242.842C511.647 244.536 511.107 245.922 510.029 247C508.964 248.066 507.604 248.598 505.948 248.598C504.279 248.598 502.9 248.066 501.809 247C500.718 245.922 500.172 244.491 500.172 242.707V241.359ZM502.829 242.842C502.829 243.843 503.111 244.671 503.676 245.325C504.241 245.967 504.998 246.288 505.948 246.288C506.859 246.288 507.591 245.973 508.143 245.345C508.707 244.716 508.99 243.856 508.99 242.765V241.359C508.99 240.358 508.714 239.53 508.162 238.876C507.61 238.221 506.859 237.894 505.909 237.894C504.96 237.894 504.209 238.221 503.657 238.876C503.105 239.53 502.829 240.384 502.829 241.436V242.842ZM513.822 257.127C513.822 255.446 514.355 254.066 515.42 252.988C516.498 251.897 517.878 251.351 519.559 251.351C521.241 251.351 522.62 251.89 523.698 252.968C524.777 254.047 525.316 255.478 525.316 257.262V258.629C525.316 260.31 524.777 261.696 523.698 262.787C522.633 263.865 521.266 264.404 519.598 264.404C517.929 264.404 516.549 263.872 515.458 262.806C514.368 261.728 513.822 260.297 513.822 258.513V257.127ZM516.479 258.629C516.479 259.643 516.761 260.477 517.326 261.131C517.891 261.773 518.648 262.094 519.598 262.094C520.522 262.094 521.26 261.78 521.812 261.151C522.364 260.509 522.64 259.643 522.64 258.552V257.127C522.64 256.113 522.357 255.285 521.792 254.643C521.241 254.002 520.496 253.681 519.559 253.681C518.648 253.681 517.904 254.002 517.326 254.643C516.761 255.272 516.479 256.126 516.479 257.204V258.629ZM506.756 261.882L504.735 260.612L518.423 238.703L520.445 239.973L506.756 261.882Z" fill="#0088F0"/>
<path d="M454.67 290.157C454.67 289.226 454.852 288.388 455.215 287.644C455.584 286.899 456.094 286.325 456.745 285.921C457.401 285.517 458.148 285.314 458.986 285.314C460.281 285.314 461.327 285.763 462.124 286.659C462.926 287.556 463.328 288.748 463.328 290.236V290.351C463.328 291.276 463.149 292.108 462.792 292.847C462.44 293.579 461.933 294.15 461.271 294.561C460.615 294.971 459.859 295.176 459.003 295.176C457.714 295.176 456.668 294.728 455.866 293.831C455.069 292.935 454.67 291.748 454.67 290.271V290.157ZM456.305 290.351C456.305 291.405 456.548 292.252 457.035 292.891C457.527 293.529 458.183 293.849 459.003 293.849C459.83 293.849 460.486 293.526 460.972 292.882C461.458 292.231 461.702 291.323 461.702 290.157C461.702 289.114 461.453 288.271 460.955 287.626C460.462 286.976 459.806 286.65 458.986 286.65C458.183 286.65 457.536 286.97 457.043 287.608C456.551 288.247 456.305 289.161 456.305 290.351ZM473.4 290.351C473.4 291.798 473.069 292.964 472.407 293.849C471.745 294.733 470.848 295.176 469.717 295.176C468.563 295.176 467.655 294.81 466.993 294.077V298.656H465.367V285.49H466.852L466.931 286.545C467.593 285.725 468.513 285.314 469.691 285.314C470.833 285.314 471.736 285.745 472.398 286.606C473.066 287.468 473.4 288.666 473.4 290.201V290.351ZM471.774 290.166C471.774 289.094 471.545 288.247 471.088 287.626C470.631 287.005 470.004 286.694 469.208 286.694C468.223 286.694 467.485 287.131 466.993 288.004V292.548C467.479 293.415 468.223 293.849 469.225 293.849C470.004 293.849 470.623 293.541 471.08 292.926C471.542 292.305 471.774 291.385 471.774 290.166ZM477.68 283.188V285.49H479.456V286.747H477.68V292.645C477.68 293.025 477.759 293.312 477.917 293.506C478.076 293.693 478.345 293.787 478.726 293.787C478.914 293.787 479.171 293.752 479.5 293.682V295C479.072 295.117 478.656 295.176 478.251 295.176C477.525 295.176 476.977 294.956 476.608 294.517C476.239 294.077 476.054 293.453 476.054 292.645V286.747H474.323V285.49H476.054V283.188H477.68ZM483.129 295H481.503V285.49H483.129V295ZM481.372 282.968C481.372 282.704 481.451 282.481 481.609 282.3C481.773 282.118 482.013 282.027 482.33 282.027C482.646 282.027 482.886 282.118 483.05 282.3C483.214 282.481 483.296 282.704 483.296 282.968C483.296 283.231 483.214 283.451 483.05 283.627C482.886 283.803 482.646 283.891 482.33 283.891C482.013 283.891 481.773 283.803 481.609 283.627C481.451 283.451 481.372 283.231 481.372 282.968ZM485.309 290.157C485.309 289.226 485.491 288.388 485.854 287.644C486.223 286.899 486.733 286.325 487.383 285.921C488.04 285.517 488.787 285.314 489.625 285.314C490.919 285.314 491.965 285.763 492.762 286.659C493.565 287.556 493.966 288.748 493.966 290.236V290.351C493.966 291.276 493.788 292.108 493.43 292.847C493.079 293.579 492.572 294.15 491.91 294.561C491.253 294.971 490.498 295.176 489.642 295.176C488.353 295.176 487.307 294.728 486.504 293.831C485.708 292.935 485.309 291.748 485.309 290.271V290.157ZM486.944 290.351C486.944 291.405 487.187 292.252 487.673 292.891C488.166 293.529 488.822 293.849 489.642 293.849C490.468 293.849 491.125 293.526 491.611 292.882C492.097 292.231 492.34 291.323 492.34 290.157C492.34 289.114 492.091 288.271 491.593 287.626C491.101 286.976 490.445 286.65 489.625 286.65C488.822 286.65 488.174 286.97 487.682 287.608C487.19 288.247 486.944 289.161 486.944 290.351ZM497.543 285.49L497.596 286.686C498.323 285.771 499.272 285.314 500.444 285.314C502.454 285.314 503.467 286.448 503.485 288.716V295H501.859V288.707C501.853 288.021 501.695 287.515 501.384 287.187C501.08 286.858 500.602 286.694 499.952 286.694C499.424 286.694 498.961 286.835 498.563 287.116C498.165 287.397 497.854 287.767 497.631 288.224V295H496.005V285.49H497.543ZM518.62 295H510.235V293.831L514.665 288.909C515.321 288.165 515.772 287.562 516.018 287.099C516.27 286.63 516.396 286.146 516.396 285.648C516.396 284.98 516.194 284.433 515.79 284.005C515.385 283.577 514.846 283.363 514.172 283.363C513.364 283.363 512.734 283.595 512.283 284.058C511.837 284.515 511.615 285.153 511.615 285.974H509.989C509.989 284.796 510.367 283.844 511.123 283.117C511.884 282.391 512.901 282.027 514.172 282.027C515.362 282.027 516.302 282.341 516.994 282.968C517.685 283.589 518.031 284.418 518.031 285.455C518.031 286.715 517.228 288.215 515.623 289.955L512.195 293.673H518.62V295Z" fill="#8794BA"/>
<path d="M210.507 64H209.417V56.7754L207.232 57.5781V56.5938L210.337 55.4277H210.507V64ZM218.857 57.6953C218.857 58.1211 218.744 58.5 218.517 58.832C218.294 59.1641 217.992 59.4238 217.609 59.6113C218.054 59.8027 218.406 60.082 218.664 60.4492C218.925 60.8164 219.056 61.2324 219.056 61.6973C219.056 62.4355 218.806 63.0234 218.306 63.4609C217.81 63.8984 217.156 64.1172 216.343 64.1172C215.523 64.1172 214.865 63.8984 214.369 63.4609C213.876 63.0195 213.63 62.4316 213.63 61.6973C213.63 61.2363 213.755 60.8203 214.005 60.4492C214.259 60.0781 214.609 59.7969 215.054 59.6055C214.675 59.418 214.376 59.1582 214.158 58.8262C213.939 58.4941 213.83 58.1172 213.83 57.6953C213.83 56.9766 214.06 56.4062 214.521 55.9844C214.982 55.5625 215.589 55.3516 216.343 55.3516C217.093 55.3516 217.699 55.5625 218.16 55.9844C218.625 56.4062 218.857 56.9766 218.857 57.6953ZM217.972 61.6738C217.972 61.1973 217.82 60.8086 217.515 60.5078C217.214 60.207 216.82 60.0566 216.332 60.0566C215.843 60.0566 215.451 60.2051 215.154 60.502C214.861 60.7988 214.714 61.1895 214.714 61.6738C214.714 62.1582 214.857 62.5391 215.142 62.8164C215.431 63.0938 215.832 63.2324 216.343 63.2324C216.851 63.2324 217.25 63.0938 217.539 62.8164C217.828 62.5352 217.972 62.1543 217.972 61.6738ZM216.343 56.2422C215.917 56.2422 215.572 56.375 215.306 56.6406C215.044 56.9023 214.914 57.2598 214.914 57.7129C214.914 58.1465 215.042 58.498 215.3 58.7676C215.562 59.0332 215.91 59.166 216.343 59.166C216.777 59.166 217.123 59.0332 217.38 58.7676C217.642 58.498 217.773 58.1465 217.773 57.7129C217.773 57.2793 217.638 56.9258 217.369 56.6523C217.099 56.3789 216.757 56.2422 216.343 56.2422ZM222.789 60.8184H219.929V59.9336H222.789V60.8184ZM229.328 64H223.738V63.2207L226.691 59.9395C227.128 59.4434 227.429 59.041 227.593 58.7324C227.761 58.4199 227.845 58.0977 227.845 57.7656C227.845 57.3203 227.71 56.9551 227.441 56.6699C227.171 56.3848 226.812 56.2422 226.363 56.2422C225.824 56.2422 225.404 56.3965 225.103 56.7051C224.806 57.0098 224.658 57.4355 224.658 57.9824H223.574C223.574 57.1973 223.826 56.5625 224.33 56.0781C224.837 55.5938 225.515 55.3516 226.363 55.3516C227.156 55.3516 227.783 55.5605 228.244 55.9785C228.705 56.3926 228.935 56.9453 228.935 57.6367C228.935 58.4766 228.4 59.4766 227.33 60.6367L225.044 63.1152H229.328V64ZM235.052 61.1348H236.236V62.0195H235.052V64H233.962V62.0195H230.078V61.3809L233.898 55.4688H235.052V61.1348ZM231.308 61.1348H233.962V56.9512L233.833 57.1855L231.308 61.1348Z" fill="#8794BA"/>
<path d="M353.535 142H347.945V141.221L350.898 137.939C351.335 137.443 351.636 137.041 351.8 136.732C351.968 136.42 352.052 136.098 352.052 135.766C352.052 135.32 351.917 134.955 351.648 134.67C351.378 134.385 351.019 134.242 350.57 134.242C350.031 134.242 349.611 134.396 349.31 134.705C349.013 135.01 348.865 135.436 348.865 135.982H347.781C347.781 135.197 348.033 134.562 348.537 134.078C349.044 133.594 349.722 133.352 350.57 133.352C351.363 133.352 351.99 133.561 352.451 133.979C352.912 134.393 353.142 134.945 353.142 135.637C353.142 136.477 352.607 137.477 351.537 138.637L349.251 141.115H353.535V142ZM355.181 137.723L355.615 133.469H359.986V134.471H356.535L356.277 136.797C356.695 136.551 357.169 136.428 357.701 136.428C358.478 136.428 359.095 136.686 359.552 137.201C360.009 137.713 360.238 138.406 360.238 139.281C360.238 140.16 360 140.854 359.523 141.361C359.05 141.865 358.388 142.117 357.537 142.117C356.783 142.117 356.167 141.908 355.691 141.49C355.214 141.072 354.943 140.494 354.876 139.756H355.902C355.968 140.244 356.142 140.613 356.423 140.863C356.705 141.109 357.076 141.232 357.537 141.232C358.041 141.232 358.435 141.061 358.72 140.717C359.009 140.373 359.154 139.898 359.154 139.293C359.154 138.723 358.998 138.266 358.685 137.922C358.376 137.574 357.964 137.4 357.449 137.4C356.976 137.4 356.605 137.504 356.335 137.711L356.048 137.945L355.181 137.723ZM363.789 138.818H360.929V137.934H363.789V138.818ZM366.314 137.207H367.128C367.64 137.199 368.042 137.064 368.335 136.803C368.628 136.541 368.775 136.188 368.775 135.742C368.775 134.742 368.277 134.242 367.281 134.242C366.812 134.242 366.437 134.377 366.156 134.646C365.878 134.912 365.74 135.266 365.74 135.707H364.656C364.656 135.031 364.902 134.471 365.394 134.025C365.89 133.576 366.519 133.352 367.281 133.352C368.085 133.352 368.716 133.564 369.173 133.99C369.63 134.416 369.859 135.008 369.859 135.766C369.859 136.137 369.738 136.496 369.496 136.844C369.257 137.191 368.931 137.451 368.517 137.623C368.986 137.771 369.347 138.018 369.601 138.361C369.859 138.705 369.988 139.125 369.988 139.621C369.988 140.387 369.738 140.994 369.238 141.443C368.738 141.893 368.087 142.117 367.287 142.117C366.486 142.117 365.833 141.9 365.33 141.467C364.83 141.033 364.58 140.461 364.58 139.75H365.669C365.669 140.199 365.816 140.559 366.109 140.828C366.402 141.098 366.794 141.232 367.287 141.232C367.81 141.232 368.21 141.096 368.488 140.822C368.765 140.549 368.904 140.156 368.904 139.645C368.904 139.148 368.751 138.768 368.447 138.502C368.142 138.236 367.703 138.1 367.128 138.092H366.314V137.207ZM376.052 139.135H377.236V140.02H376.052V142H374.962V140.02H371.078V139.381L374.898 133.469H376.052V139.135ZM372.308 139.135H374.962V134.951L374.833 135.186L372.308 139.135Z" fill="#8794BA"/>
<path d="M349.521 268.207H350.335C350.847 268.199 351.25 268.064 351.542 267.803C351.835 267.541 351.982 267.188 351.982 266.742C351.982 265.742 351.484 265.242 350.488 265.242C350.019 265.242 349.644 265.377 349.363 265.646C349.085 265.912 348.947 266.266 348.947 266.707H347.863C347.863 266.031 348.109 265.471 348.601 265.025C349.097 264.576 349.726 264.352 350.488 264.352C351.292 264.352 351.923 264.564 352.38 264.99C352.837 265.416 353.066 266.008 353.066 266.766C353.066 267.137 352.945 267.496 352.703 267.844C352.464 268.191 352.138 268.451 351.724 268.623C352.193 268.771 352.554 269.018 352.808 269.361C353.066 269.705 353.195 270.125 353.195 270.621C353.195 271.387 352.945 271.994 352.445 272.443C351.945 272.893 351.294 273.117 350.494 273.117C349.693 273.117 349.041 272.9 348.537 272.467C348.037 272.033 347.787 271.461 347.787 270.75H348.876C348.876 271.199 349.023 271.559 349.316 271.828C349.609 272.098 350.001 272.232 350.494 272.232C351.017 272.232 351.417 272.096 351.695 271.822C351.972 271.549 352.111 271.156 352.111 270.645C352.111 270.148 351.958 269.768 351.654 269.502C351.349 269.236 350.91 269.1 350.335 269.092H349.521V268.207ZM355.181 268.723L355.615 264.469H359.986V265.471H356.535L356.277 267.797C356.695 267.551 357.169 267.428 357.701 267.428C358.478 267.428 359.095 267.686 359.552 268.201C360.009 268.713 360.238 269.406 360.238 270.281C360.238 271.16 360 271.854 359.523 272.361C359.05 272.865 358.388 273.117 357.537 273.117C356.783 273.117 356.167 272.908 355.691 272.49C355.214 272.072 354.943 271.494 354.876 270.756H355.902C355.968 271.244 356.142 271.613 356.423 271.863C356.705 272.109 357.076 272.232 357.537 272.232C358.041 272.232 358.435 272.061 358.72 271.717C359.009 271.373 359.154 270.898 359.154 270.293C359.154 269.723 358.998 269.266 358.685 268.922C358.376 268.574 357.964 268.4 357.449 268.4C356.976 268.4 356.605 268.504 356.335 268.711L356.048 268.945L355.181 268.723ZM363.789 269.818H360.929V268.934H363.789V269.818ZM369.314 270.135H370.498V271.02H369.314V273H368.224V271.02H364.339V270.381L368.16 264.469H369.314V270.135ZM365.57 270.135H368.224V265.951L368.095 266.186L365.57 270.135ZM376.052 270.135H377.236V271.02H376.052V273H374.962V271.02H371.078V270.381L374.898 264.469H376.052V270.135ZM372.308 270.135H374.962V265.951L374.833 266.186L372.308 270.135Z" fill="#8794BA"/>
<path d="M211.521 355.135H212.705V356.02H211.521V358H210.431V356.02H206.546V355.381L210.367 349.469H211.521V355.135ZM207.777 355.135H210.431V350.951L210.302 351.186L207.777 355.135ZM214.181 353.723L214.615 349.469H218.986V350.471H215.535L215.277 352.797C215.695 352.551 216.169 352.428 216.701 352.428C217.478 352.428 218.095 352.686 218.552 353.201C219.009 353.713 219.238 354.406 219.238 355.281C219.238 356.16 219 356.854 218.523 357.361C218.05 357.865 217.388 358.117 216.537 358.117C215.783 358.117 215.167 357.908 214.691 357.49C214.214 357.072 213.943 356.494 213.876 355.756H214.902C214.968 356.244 215.142 356.613 215.423 356.863C215.705 357.109 216.076 357.232 216.537 357.232C217.041 357.232 217.435 357.061 217.72 356.717C218.009 356.373 218.154 355.898 218.154 355.293C218.154 354.723 217.998 354.266 217.685 353.922C217.376 353.574 216.964 353.4 216.449 353.4C215.976 353.4 215.605 353.504 215.335 353.711L215.048 353.945L214.181 353.723ZM222.789 354.818H219.929V353.934H222.789V354.818ZM224.236 353.723L224.669 349.469H229.041V350.471H225.589L225.332 352.797C225.75 352.551 226.224 352.428 226.755 352.428C227.533 352.428 228.15 352.686 228.607 353.201C229.064 353.713 229.292 354.406 229.292 355.281C229.292 356.16 229.054 356.854 228.578 357.361C228.105 357.865 227.443 358.117 226.591 358.117C225.837 358.117 225.222 357.908 224.746 357.49C224.269 357.072 223.998 356.494 223.931 355.756H224.957C225.023 356.244 225.197 356.613 225.478 356.863C225.759 357.109 226.13 357.232 226.591 357.232C227.095 357.232 227.49 357.061 227.775 356.717C228.064 356.373 228.208 355.898 228.208 355.293C228.208 354.723 228.052 354.266 227.74 353.922C227.431 353.574 227.019 353.4 226.503 353.4C226.031 353.4 225.66 353.504 225.39 353.711L225.103 353.945L224.236 353.723ZM235.052 355.135H236.236V356.02H235.052V358H233.962V356.02H230.078V355.381L233.898 349.469H235.052V355.135ZM231.308 355.135H233.962V350.951L233.833 351.186L231.308 355.135Z" fill="#8794BA"/>
<path d="M66.4429 268.723L66.8765 264.469H71.2476V265.471H67.7964L67.5386 267.797C67.9565 267.551 68.4312 267.428 68.9624 267.428C69.7397 267.428 70.3569 267.686 70.814 268.201C71.271 268.713 71.4995 269.406 71.4995 270.281C71.4995 271.16 71.2612 271.854 70.7847 272.361C70.312 272.865 69.6499 273.117 68.7983 273.117C68.0444 273.117 67.4292 272.908 66.9526 272.49C66.4761 272.072 66.2046 271.494 66.1382 270.756H67.1636C67.23 271.244 67.4038 271.613 67.6851 271.863C67.9663 272.109 68.3374 272.232 68.7983 272.232C69.3022 272.232 69.6968 272.061 69.9819 271.717C70.271 271.373 70.4155 270.898 70.4155 270.293C70.4155 269.723 70.2593 269.266 69.9468 268.922C69.6382 268.574 69.2261 268.4 68.7104 268.4C68.2378 268.4 67.8667 268.504 67.5972 268.711L67.3101 268.945L66.4429 268.723ZM73.1812 268.723L73.6147 264.469H77.9858V265.471H74.5347L74.2769 267.797C74.6948 267.551 75.1694 267.428 75.7007 267.428C76.478 267.428 77.0952 267.686 77.5522 268.201C78.0093 268.713 78.2378 269.406 78.2378 270.281C78.2378 271.16 77.9995 271.854 77.5229 272.361C77.0503 272.865 76.3882 273.117 75.5366 273.117C74.7827 273.117 74.1675 272.908 73.6909 272.49C73.2144 272.072 72.9429 271.494 72.8765 270.756H73.9019C73.9683 271.244 74.1421 271.613 74.4233 271.863C74.7046 272.109 75.0757 272.232 75.5366 272.232C76.0405 272.232 76.4351 272.061 76.7202 271.717C77.0093 271.373 77.1538 270.898 77.1538 270.293C77.1538 269.723 76.9976 269.266 76.6851 268.922C76.3765 268.574 75.9644 268.4 75.4487 268.4C74.9761 268.4 74.605 268.504 74.3354 268.711L74.0483 268.945L73.1812 268.723ZM81.7886 269.818H78.9292V268.934H81.7886V269.818ZM86.9917 264.463V265.383H86.7925C85.9487 265.398 85.2769 265.648 84.7769 266.133C84.2769 266.617 83.9878 267.299 83.9097 268.178C84.3589 267.662 84.9722 267.404 85.7495 267.404C86.4917 267.404 87.0835 267.666 87.5249 268.189C87.9702 268.713 88.1929 269.389 88.1929 270.217C88.1929 271.096 87.9526 271.799 87.4722 272.326C86.9956 272.854 86.355 273.117 85.5503 273.117C84.7339 273.117 84.0718 272.805 83.564 272.18C83.0562 271.551 82.8022 270.742 82.8022 269.754V269.338C82.8022 267.768 83.1362 266.568 83.8042 265.74C84.4761 264.908 85.4741 264.482 86.7983 264.463H86.9917ZM85.5679 268.307C85.1968 268.307 84.855 268.418 84.5425 268.641C84.23 268.863 84.0132 269.143 83.8921 269.479V269.877C83.8921 270.58 84.0503 271.146 84.3667 271.576C84.6831 272.006 85.0776 272.221 85.5503 272.221C86.0386 272.221 86.4214 272.041 86.6987 271.682C86.98 271.322 87.1206 270.852 87.1206 270.27C87.1206 269.684 86.978 269.211 86.6929 268.852C86.4116 268.488 86.0366 268.307 85.5679 268.307ZM94.0522 270.135H95.2358V271.02H94.0522V273H92.9624V271.02H89.0776V270.381L92.8979 264.469H94.0522V270.135ZM90.3081 270.135H92.9624V265.951L92.8335 266.186L90.3081 270.135Z" fill="#8794BA"/>
<path d="M75.1909 133.463V134.383H74.9917C74.1479 134.398 73.4761 134.648 72.9761 135.133C72.4761 135.617 72.187 136.299 72.1089 137.178C72.5581 136.662 73.1714 136.404 73.9487 136.404C74.6909 136.404 75.2827 136.666 75.7241 137.189C76.1694 137.713 76.3921 138.389 76.3921 139.217C76.3921 140.096 76.1519 140.799 75.6714 141.326C75.1948 141.854 74.5542 142.117 73.7495 142.117C72.9331 142.117 72.271 141.805 71.7632 141.18C71.2554 140.551 71.0015 139.742 71.0015 138.754V138.338C71.0015 136.768 71.3354 135.568 72.0034 134.74C72.6753 133.908 73.6733 133.482 74.9976 133.463H75.1909ZM73.7671 137.307C73.396 137.307 73.0542 137.418 72.7417 137.641C72.4292 137.863 72.2124 138.143 72.0913 138.479V138.877C72.0913 139.58 72.2495 140.146 72.5659 140.576C72.8823 141.006 73.2769 141.221 73.7495 141.221C74.2378 141.221 74.6206 141.041 74.8979 140.682C75.1792 140.322 75.3198 139.852 75.3198 139.27C75.3198 138.684 75.1772 138.211 74.8921 137.852C74.6108 137.488 74.2358 137.307 73.7671 137.307ZM78.1733 137.723L78.6069 133.469H82.978V134.471H79.5269L79.269 136.797C79.687 136.551 80.1616 136.428 80.6929 136.428C81.4702 136.428 82.0874 136.686 82.5444 137.201C83.0015 137.713 83.23 138.406 83.23 139.281C83.23 140.16 82.9917 140.854 82.5151 141.361C82.0425 141.865 81.3804 142.117 80.5288 142.117C79.7749 142.117 79.1597 141.908 78.6831 141.49C78.2065 141.072 77.9351 140.494 77.8687 139.756H78.894C78.9604 140.244 79.1343 140.613 79.4155 140.863C79.6968 141.109 80.0679 141.232 80.5288 141.232C81.0327 141.232 81.4272 141.061 81.7124 140.717C82.0015 140.373 82.146 139.898 82.146 139.293C82.146 138.723 81.9897 138.266 81.6772 137.922C81.3687 137.574 80.9565 137.4 80.4409 137.4C79.9683 137.4 79.5972 137.504 79.3276 137.711L79.0405 137.945L78.1733 137.723ZM87.6304 137.424H90.0093V138.449H87.6304V141.145H86.5405V138.449H84.1616V137.424H86.5405V134.934H87.6304V137.424Z" fill="#8794BA"/>
<defs>
<filter id="filter0_d_535_1410" x="-34.1294" y="-17" width="670" height="480" filterUnits="userSpaceOnUse" color-interpolation-filters="sRGB">
<feFlood flood-opacity="0" result="BackgroundImageFix"/>
<feColorMatrix in="SourceAlpha" type="matrix" values="0 0 0 0 0 0 0 0 0 0 0 0 0 0 0 0 0 0 127 0" result="hardAlpha"/>
<feMorphology radius="15" operator="erode" in="SourceAlpha" result="effect1_dropShadow_535_1410"/>
<feOffset dy="18"/>
<feGaussianBlur stdDeviation="25"/>
<feColorMatrix type="matrix" values="0 0 0 0 0.0996452 0 0 0 0 0.164326 0 0 0 0 0.350284 0 0 0 0.2 0"/>
<feBlend mode="normal" in2="BackgroundImageFix" result="effect1_dropShadow_535_1410"/>
<feBlend mode="normal" in="SourceGraphic" in2="effect1_dropShadow_535_1410" result="shape"/>
</filter>
</defs>
</svg>
